<svg xmlns="http://www.w3.org/2000/svg" xmlns:xlink="http://www.w3.org/1999/xlink" width="500" zoomAndPan="magnify" viewBox="0 0 375 374.999991" height="500" preserveAspectRatio="xMidYMid meet" version="1.0"><defs><g/></defs><g fill="#5ce1e6" fill-opacity="1"><g transform="translate(126.897133, 209.871241)"><g><path d="M 53.5625 -80.78125 L 84 0 L 61.609375 0 L 56.359375 -14.03125 L 27.421875 -14.03125 L 21.859375 0 L -0.421875 0 L 30.640625 -80.78125 Z M 33.21875 -30.109375 L 50.671875 -30.109375 L 42.109375 -55.8125 L 41.890625 -55.8125 Z M 33.21875 -30.109375 "/></g></g></g><g fill="#ffffff" fill-opacity="1"><g transform="translate(142.641367, 223.600305)"><g><path d="M 53.5625 -80.78125 L 84 0 L 61.609375 0 L 56.359375 -14.03125 L 27.421875 -14.03125 L 21.859375 0 L -0.421875 0 L 30.640625 -80.78125 Z M 33.21875 -30.109375 L 50.671875 -30.109375 L 42.109375 -55.8125 L 41.890625 -55.8125 Z M 33.21875 -30.109375 "/></g></g></g><g fill="#ffffff" fill-opacity="1"><g transform="translate(170.480852, 255.09527)"><g><path d="M 64.609375 -53.671875 C 62.535156 -56.535156 59.851562 -58.734375 56.5625 -60.265625 C 53.28125 -61.796875 49.816406 -62.5625 46.171875 -62.5625 C 39.960938 -62.5625 34.820312 -60.453125 30.75 -56.234375 C 26.675781 -52.023438 24.640625 -46.671875 24.640625 -40.171875 C 24.640625 -33.742188 26.65625 -28.476562 30.6875 -24.375 C 34.726562 -20.269531 40 -18.21875 46.5 -18.21875 C 49.925781 -18.21875 53.226562 -18.96875 56.40625 -20.46875 C 59.582031 -21.96875 62.316406 -24.070312 64.609375 -26.78125 L 64.609375 -1.609375 C 60.890625 -0.460938 57.566406 0.445312 54.640625 1.125 C 51.710938 1.800781 48.859375 2.140625 46.078125 2.140625 C 34.785156 2.140625 24.742188 -1.769531 15.953125 -9.59375 C 7.171875 -17.414062 2.78125 -27.644531 2.78125 -40.28125 C 2.78125 -48.070312 4.707031 -55.25 8.5625 -61.8125 C 12.425781 -68.382812 17.675781 -73.546875 24.3125 -77.296875 C 30.957031 -81.046875 37.992188 -82.921875 45.421875 -82.921875 C 51.421875 -82.921875 57.816406 -81.566406 64.609375 -78.859375 Z M 64.609375 -53.671875 "/></g></g></g><g fill="#5ce1e6" fill-opacity="1"><g transform="translate(201.230191, 159.31504)"><g><path d="M 30.96875 -10.390625 C 30.96875 -6.890625 29.695312 -3.925781 27.15625 -1.5 C 24.625 0.925781 21.710938 2.140625 18.421875 2.140625 C 14.992188 2.140625 12.046875 0.925781 9.578125 -1.5 C 7.117188 -3.925781 5.890625 -6.890625 5.890625 -10.390625 C 5.890625 -13.742188 7.101562 -16.671875 9.53125 -19.171875 C 11.957031 -21.671875 14.921875 -22.921875 18.421875 -22.921875 C 21.921875 -22.921875 24.882812 -21.6875 27.3125 -19.21875 C 29.75 -16.757812 30.96875 -13.816406 30.96875 -10.390625 Z M 30.96875 -10.390625 "/></g></g></g></svg>